<svg width="171" height="165" viewBox="0 0 171 165" fill="none" xmlns="http://www.w3.org/2000/svg">
<g clip-path="url(#clip0_1_26)">
<path d="M132.921 108.53C132.921 108.53 123.601 108.53 146.001 108.53C168.401 108.53 171 139.53 139 139.53C90.5 139.53 71.5 136.03 67 119.53C62.5 103.03 81.5 95.0303 89 105.03C96.5 115.03 90 124.03 83 133.53C76 143.03 79 157.53 95 157.53" stroke="#BEC7F6" stroke-width="2" stroke-linecap="round"/>
<path d="M92 127.53H120V89.53H92V127.53Z" fill="#1966FF"/>
<path d="M120 89.53C109.507 89.53 101 98.0366 101 108.53C101 119.023 109.507 127.53 120 127.53C130.493 127.53 139 119.023 139 108.53C139 98.0366 130.493 89.53 120 89.53Z" fill="#1966FF"/>
<path d="M92 89.53C87.0294 89.53 83 98.0366 83 108.53C83 119.023 87.0294 127.53 92 127.53C96.9706 127.53 101 119.023 101 108.53C101 98.0366 96.9706 89.53 92 89.53Z" fill="#091568"/>
<path d="M89 117.53H95C96.1046 117.53 97 116.635 97 115.53C97 114.425 96.1046 113.53 95 113.53H89C87.8954 113.53 87 114.425 87 115.53C87 116.635 87.8954 117.53 89 117.53Z" fill="#AACBFF"/>
<path d="M89 105.53H95C96.1046 105.53 97 104.635 97 103.53C97 102.425 96.1046 101.53 95 101.53H89C87.8954 101.53 87 102.425 87 103.53C87 104.635 87.8954 105.53 89 105.53Z" fill="#AACBFF"/>
<path d="M28 49.5303C28 49.5303 47.2693 49.5303 23 49.5303C-1.26927 49.5303 -4.49891 20.1303 27 13.5303C58.4989 6.93026 123 16.0303 123 51.5303C123 65.5303 107 65.5303 107 51.5303C107 31.5303 135 19.5303 117 5.53027" stroke="#BEC7F6" stroke-width="2" stroke-linecap="round"/>
<path d="M73.9999 31.5303H45.9999V69.5303H73.9999V31.5303Z" fill="#1966FF"/>
<path d="M46 69.5303C56.4934 69.5303 65 61.0237 65 50.5303C65 40.0369 56.4934 31.5303 46 31.5303C35.5066 31.5303 27 40.0369 27 50.5303C27 61.0237 35.5066 69.5303 46 69.5303Z" fill="#1966FF"/>
<path d="M73.9999 69.5303C78.9705 69.5303 82.9999 61.0237 82.9999 50.5303C82.9999 40.0369 78.9705 31.5303 73.9999 31.5303C69.0293 31.5303 64.9999 40.0369 64.9999 50.5303C64.9999 61.0237 69.0293 69.5303 73.9999 69.5303Z" fill="#091568"/>
<path d="M84.5 41.5303H74.5C73.3954 41.5303 72.5 42.4257 72.5 43.5303V43.5555C72.5 44.66 73.3954 45.5555 74.5 45.5555H84.5C85.6046 45.5555 86.5 44.66 86.5 43.5555V43.5303C86.5 42.4257 85.6046 41.5303 84.5 41.5303Z" fill="#AACBFF"/>
<path d="M84.5 53.5049H74.5C73.3954 53.5049 72.5 54.4003 72.5 55.5049V55.53C72.5 56.6346 73.3954 57.53 74.5 57.53H84.5C85.6046 57.53 86.5 56.6346 86.5 55.53V55.5049C86.5 54.4003 85.6046 53.5049 84.5 53.5049Z" fill="#AACBFF"/>
<path d="M0 16.5303L18 27.3303L-9.44166e-07 38.1303L0 16.5303Z" fill="#04E1CB"/>
<path d="M113.263 -4.57764e-05L99.2633 13.9998L100.324 15.0604L114.324 1.06059L113.263 -4.57764e-05Z" fill="#AACBFF"/>
<path d="M114.324 13.9999L100.324 0.000234755L99.2631 1.06088L113.263 15.0606L114.324 13.9999Z" fill="#AACBFF"/>
<path d="M171 113.53H153V131.53H171V113.53Z" fill="#F9C969"/>
<path d="M11.6641 129.631V149.43H13.1641V129.631H11.6641Z" fill="#AACBFF"/>
<path d="M22.3134 138.78H2.51464L2.51462 140.28H22.3134V138.78Z" fill="#AACBFF"/>
<path d="M97.3775 152.006L115.376 161.006L116.208 159.758L98.2095 150.758L97.3775 152.006Z" fill="#AACBFF"/>
<path d="M106.587 146.706V164.706" stroke="#AACBFF" stroke-width="1.5" stroke-linejoin="round"/>
<path d="M115.377 150.758L97.3788 159.758L98.2108 161.006L116.209 152.006L115.377 150.758Z" fill="#AACBFF"/>
<path d="M35 125.53C39.9706 125.53 44 121.501 44 116.53C44 111.559 39.9706 107.53 35 107.53C30.0294 107.53 26 111.559 26 116.53C26 121.501 30.0294 125.53 35 125.53Z" fill="#DFB6FD"/>
</g>
<defs>
<clipPath id="clip0_1_26">
<rect width="171" height="165" fill="white"/>
</clipPath>
</defs>
</svg>
