<svg viewBox="0 0 120 120" xmlns="http://www.w3.org/2000/svg" role="img" aria-label="Tableau">
  <g fill="#E8762C"><rect x="43" y="55.5" width="34" height="9"/><rect x="55.5" y="43" width="9" height="34"/></g>
  <g fill="#4E79A7"><rect x="76" y="39" width="24" height="6"/><rect x="85" y="30" width="6" height="24"/></g>
  <g fill="#C72037"><rect x="24" y="83.25" width="20" height="5.5"/><rect x="31.25" y="76" width="5.5" height="20"/></g>
  <g fill="#1F447E"><rect x="79" y="87.5" width="18" height="5"/><rect x="85.5" y="81" width="5" height="18"/></g>
  <g fill="#6C9CAB"><rect x="52" y="23.75" width="16" height="4.5"/><rect x="57.75" y="18" width="4.5" height="16"/></g>
  <g fill="#78B7B2"><rect x="20" y="51.75" width="16" height="4.5"/><rect x="25.75" y="46" width="4.5" height="16"/></g>
  <g fill="#5A5EA6"><rect x="87" y="68" width="14" height="4"/><rect x="92" y="63" width="4" height="14"/></g>
  <g fill="#6B6FB1"><rect x="55" y="92" width="14" height="4"/><rect x="60" y="87" width="4" height="14"/></g>
</svg>
